<svg xmlns="http://www.w3.org/2000/svg" xmlns:xlink="http://www.w3.org/1999/xlink" viewBox="0 0 74.375 85" width="16" height="20" fill="#fff" fill-rule="evenodd" stroke="#000" stroke-linecap="round" stroke-linejoin="round"><use xlink:href="#A" x="2.188" y="2.5"/><symbol id="A" overflow="visible"><g stroke="none"><use xlink:href="#C"/><use xlink:href="#D"/><use xlink:href="#E"/><use xlink:href="#F"/><use xlink:href="#G"/><path d="M40.023 32.805z"/><use xlink:href="#H" fill="#444"/><use xlink:href="#I"/><use xlink:href="#J"/><use xlink:href="#K"/><use xlink:href="#L"/><use xlink:href="#M"/><path d="M17.468 57.365h0 0 0z"/><use xlink:href="#N" fill="#444"/><use xlink:href="#O"/><use xlink:href="#P"/><use xlink:href="#Q"/><use xlink:href="#R"/><use xlink:href="#S"/><path d="M35.088 66.9z"/><use xlink:href="#T" fill="#444"/><use xlink:href="#C"/><use xlink:href="#D"/><use xlink:href="#E"/><use xlink:href="#F"/><use xlink:href="#G"/><path d="M40.023 32.805z"/><use xlink:href="#H" fill="#444"/><use xlink:href="#I"/><use xlink:href="#J"/><use xlink:href="#K"/><use xlink:href="#L"/><use xlink:href="#M"/><path d="M17.468 57.365h0 0 0z"/><use xlink:href="#N" fill="#444"/><use xlink:href="#O"/><use xlink:href="#P"/><use xlink:href="#Q"/><use xlink:href="#R"/><use xlink:href="#S"/><path d="M35.088 66.9z"/><use xlink:href="#T" fill="#444"/></g></symbol><defs ><path id="C" d="M40.012 66.958l28.914-16.468V17.653L40.012 34.066v32.892z"/><path id="D" d="M11.131 50.491l28.892 16.446V34.077L11.131 17.664v32.827z"/><path id="E" d="M68.872 17.632L40.023 1.251 11.164 17.632l28.859 16.424 28.848-16.424z"/><path id="F" d="M40.023 32.805l26.689-15.152-.032-.022-26.657 15.173h0z"/><path id="G" d="M13.366 17.632l-.043.022 26.7 15.152h0L13.366 17.632z"/><path id="H" d="M68.872 16.381L40.024 0 11.132 16.381l-1.085.642v34.121l28.892 16.446 1.085.62 1.085-.62 28.892-16.446V17.022zm-1.085 33.49L41.065 65.099V34.698L67.787 19.47zM38.895 65.099L12.217 49.871V19.513l26.722 15.228zM13.367 17.632L40.024 2.491l26.657 15.141h0L40.024 32.805h0L13.302 17.653z"/><path id="I" d="M17.489 77.216l16.61-9.452V48.903l-16.61 9.43v18.882z"/><path id="J" d="M.803 67.775l16.675 9.496V58.312L.803 48.838v18.937z"/><path id="K" d="M34.002 48.838l-16.534-9.387L.933 48.838l16.534 9.409 16.534-9.409z"/><path id="L" d="M17.468 57.366l14.994-8.517-.011-.011-14.983 8.527h0z"/><path id="M" d="M2.485 48.838l-.022.011 15.005 8.517h0L2.485 48.838z"/><path id="N" d="M34.1 47.902l-16.632-9.441L.835 47.902 0 48.381v19.894l16.654 9.463.814.468.814-.468 16.654-9.463V48.37zm-.792 19.405l-15.026 8.582V58.779l15.026-8.528zm-16.654 8.582L1.627 67.307V50.252l15.026 8.528zM2.452 48.838l14.983-8.506 14.983 8.506h0l-14.95 8.56h0L2.452 48.849z"/><path id="O" d="M35.239 78.782l9.547-5.438V62.51l-9.547 5.428v10.844z"/><path id="P" d="M25.388 73.344l9.547 5.438V67.938l-9.547-5.428v10.834z"/><path id="Q" d="M44.57 62.238l-9.482-5.384-9.482 5.384 9.482 5.395 9.482-5.395z"/><path id="R" d="M35.087 66.904l8.202-4.655-.011-.011-8.191 4.666h0z"/><path id="S" d="M26.896 62.238l-.011.011 8.202 4.655h0l-8.191-4.666z"/><path id="T" d="M44.927 61.303l-9.84-5.591-9.851 5.591-.825.468V73.92l9.851 5.612.814.468.814-.468 9.851-5.612V61.749zm-.803 11.671l-8.224 4.677v-9.376l8.224-4.666zm-18.075-9.332l8.224 4.634v9.343l-8.224-4.677zm.846-1.403l8.191-4.655 8.191 4.655h0l-8.202 4.655h0l-8.202-4.655z"/></defs></svg>