<svg xmlns="http://www.w3.org/2000/svg" fill="none" width="24" height="24" viewBox="60 -17 80 40">
  <path fill="#26A162" d="M130.935 22c-.08.28-.2.56-.24.8533-.734 4.8667-3.013 8.8933-6.707 12.1067-2.586 2.2533-5.586 3.6933-8.96 4.3866-1.706.3467-3.426.4667-5.16.3734-2.653-.16-5.186-.8267-7.573-2.0134-.04-.0133-.053-.0666-.08-.0933.013-1.84.013-3.68.027-5.5067.146.0534.293.0934.44.1467.493.1867.973.4133 1.48.56 2.306.6533 4.653.8 7.04.56 1.173-.12 2.306-.3733 3.4-.8267 2.266-.96 3.84-2.56 4.626-4.92.56-1.68.667-3.3866.36-5.1066-.453-2.56-1.893-4.3867-4.266-5.4534-1.08-.4933-2.214-.7066-3.4-.8133-1.254-.1067-2.467 0-3.707.1467-.373.04-.76.28-1.2.0666.2-2.1733.4-4.3466.6-6.58663h10.227V6.02664c.013-1.57333.026-3.14667.026-4.72.174.05333.347.08.507.14667 2.307.86666 4.36 2.17333 6.147 3.84 3.373 3.16 5.453 7.01329 6.173 11.59999.053.32-.04.7067.226.9867.014 1.36.014 2.7466.014 4.12z"/>
  <path fill="#DB524A" d="M102.254 32.0933c-.014 1.84-.014 3.68-.027 5.5067-.787-.44-1.627-.8133-2.3601-1.32-2.7733-1.8933-4.96-4.3467-6.4933-7.3333-.9467-1.8534-1.5867-3.8134-1.92-5.88-.2533-1.5467-.32-3.0934-.2133-4.64.16-2.2534.6933-4.44 1.6133-6.52 1.1733-2.65337 2.84-4.9467 5-6.88003 2.3204-2.06667 4.9734-3.52 7.9734-4.320003.933-.253334 1.907-.373334 2.853-.573334C108.774.12 108.854.04 108.947 0h4c.04.04.08.106667.133.12.6.093333 1.214.16 1.814.28 1.013.226667 2.053.4 3 .89333-.014 1.57334-.027 3.14667-.027 4.72H103.8c-.026.42667-.026.8-.053 1.17334-.12 1.41333-.253 2.81333-.36 4.22663-.067.8134-.107 1.64-.16 2.4534-.04.64-.093 1.28-.147 1.92-.093 1.1466-.186 2.2933-.293 3.44.68.4133 1.32.8 1.88 1.1333.987-.1467 1.867-.32 2.773-.3867 1.08-.08 2.174-.1333 3.254-.0666.666.04 1.346.2666 1.973.5066 1.307.4934 2.173 1.4267 2.453 2.8267.12.64.147 1.32.147 1.9733-.027 2.1067-1.36 3.7334-3.347 4.2667-1.2.32-2.413.4267-3.666.2933-1.96-.1866-3.827-.64-5.587-1.5066-.12-.0667-.267-.08-.453-.1467v3.7333c-.054.08 0 .16.04.24z"/>
</svg>
